<svg xmlns="http://www.w3.org/2000/svg" viewBox="0 0 429.1 422.19"><g id="Layer_2" data-name="Layer 2"><g id="Layer_2-2" data-name="Layer 2"><path id="DEFS" d="M313.31,124.46c-31.89,0-49.15-19.79-66.25-42,17.1-22.21,34.36-42,66.25-42a8,8,0,0,0,0-16c-37.51,0-58.7,22.39-76.32,44.89-17.62-22.5-38.82-44.89-76.33-44.89S102,46.85,84.33,69.35C66.71,46.85,45.51,24.46,8,24.46a8,8,0,0,0,0,16c31.9,0,49.16,19.79,66.25,42-17.09,22.21-34.35,42-66.25,42a8,8,0,0,0,0,16c37.51,0,58.71-22.4,76.33-44.89,17.62,22.49,38.81,44.89,76.33,44.89s58.71-22.4,76.33-44.89c17.62,22.49,38.81,44.89,76.32,44.89a8,8,0,0,0,0-16Zm-152.65,0c-31.9,0-49.16-19.79-66.26-42,17.1-22.21,34.36-42,66.26-42s49.15,19.79,66.25,42C209.81,104.67,192.55,124.46,160.66,124.46Zm264.63,32.45a8,8,0,0,1-8,8h-74a8,8,0,0,1,0-16h29V16h-29a8,8,0,0,1,0-16h74a8,8,0,0,1,0,16h-29V148.91h29A8,8,0,0,1,425.29,156.91ZM139.79,259.35a8.06,8.06,0,0,1-4-1.07L82.2,227.34a8,8,0,1,1,8-13.86l53.59,30.94a8,8,0,0,1-4,14.93ZM344.52,377.56a7.93,7.93,0,0,1-4-1.08l-53.59-30.94a8,8,0,1,1,8-13.85l53.59,30.94a8,8,0,0,1-4,14.93Zm-258.31,0a8,8,0,0,1-4-14.93l53.59-30.94a8,8,0,1,1,8,13.85L90.2,376.48A7.93,7.93,0,0,1,86.21,377.56ZM291,259.35a8,8,0,0,1-4-14.93l53.59-30.94a8,8,0,1,1,8,13.86l-53.59,30.94A8,8,0,0,1,291,259.35Zm-217,88.43c-6.22-1.13-12.3-1.9-18.09-2.62-14.65-1.83-27.3-3.41-37.26-10.05C7,327.41,1.63,314.66,1.63,295S7,262.55,18.56,254.85c10-6.64,22.61-8.22,37.26-10,5.79-.72,11.87-1.49,18.09-2.62L94,253.79c-13,4-25.43,5.54-36.22,6.89-27.58,3.44-40.17,5-40.17,34.3s12.59,30.86,40.17,34.3C68.59,330.63,81,332.19,94,336.17ZM129,216.27A190.63,190.63,0,0,0,147.73,198c15-16.21,28-30.21,67.63-30.21h0c39.65,0,52.62,14,67.64,30.21a190.63,190.63,0,0,0,18.7,18.28L287,224.74c-6.28-5.64-11.3-11-15.77-15.88-14.49-15.64-23.24-25.08-55.9-25.08s-41.4,9.44-55.89,25.08C155,213.7,150,219.1,143.7,224.74ZM429.1,295c0,18.32-5.36,30.64-16.38,37.65-9.51,6.05-21.83,7.28-34.88,8.59-8.23.83-17,1.71-25.73,3.84l-18.63-10.75c14.94-6.21,29.91-7.72,42.76-9,25.31-2.54,36.86-3.7,36.86-30.32,0-29.28-12.59-30.86-40.17-34.3-10.79-1.35-23.23-2.91-36.22-6.89l20.11-11.61c6.22,1.13,12.3,1.9,18.09,2.62,14.65,1.83,27.3,3.41,37.26,10C423.72,262.55,429.1,275.3,429.1,295ZM304.51,375.32c-5.07,5-9.39,9.56-13.44,13.88-19.31,20.57-31,33-75.7,33-39.65,0-52.62-14-67.64-30.22A190.63,190.63,0,0,0,129,373.69l14.67-8.47c6.28,5.64,11.3,11,15.77,15.88,14.49,15.64,23.24,25.08,55.9,25.09,37.82,0,46-8.76,64-27.94,3.21-3.41,6.74-7.17,10.76-11.22Z"/></g></g></svg>