<svg xmlns="http://www.w3.org/2000/svg" viewBox="0 0 430.49 425.25"><g id="Layer_2" data-name="Layer 2"><g id="Layer_2-2" data-name="Layer 2"><path id="HIP_DAME" d="M40.42,99.6a8,8,0,0,1-8-8V38.74L7.34,13.66A8,8,0,0,1,18.66,2.34L46.08,29.77a8,8,0,0,1,2.34,5.65V91.6A8,8,0,0,1,40.42,99.6ZM22.79,53a8,8,0,0,0,0-11.32l-9.13-9.13A8,8,0,0,0,2.34,43.89L11.47,53a8,8,0,0,0,11.32,0ZM73.36,91.6V38.74L98.44,13.66A8,8,0,0,0,87.13,2.34L59.7,29.77a8,8,0,0,0-2.34,5.65V91.6a8,8,0,0,0,16,0ZM94.31,53l9.13-9.13A8,8,0,0,0,92.13,32.57L83,41.7A8,8,0,0,0,94.31,53ZM430.49,210A215.25,215.25,0,0,1,63,362.21,213.86,213.86,0,0,1,0,210H.05c0-.26,0-.51,0-.76,0-34.79,22.81-67.12,64.24-91,40.05-23.13,93.18-35.85,149.66-35.85h.68c56.73.1,110.25,13,150.7,36.38C407,142.83,430.12,175.21,430.44,210ZM361.25,135,236.32,207.08,398,254.86c10.78-13.79,16.45-28.74,16.45-44.1C414.46,182.69,395.6,155.9,361.25,135Zm-225-27.67,81.56,92L344.8,126c-37.69-18.43-84.32-27.66-130.86-27.66A333,333,0,0,0,136.27,107.28Zm79.91,102.19ZM16,209.25a62.73,62.73,0,0,0,.83,10.06l182.82-16.39L119.07,112a228.86,228.86,0,0,0-46.8,20.07C36,153,16,180.42,16,209.25ZM21.43,235c8.29,19.48,26,37.55,51.75,52.44,29.8,17.2,66.6,27.92,105.08,32.18l27.21-101.13ZM404.7,271.71c-10.07,11-23,21.13-38.47,30.08h0A250.19,250.19,0,0,1,309,325.39a22,22,0,0,0,5-18.2,227.72,227.72,0,0,0,44.16-19.25,155.5,155.5,0,0,0,27.61-20L221.77,219.46,194.45,321a350.92,350.92,0,0,0,50.55-.46,21.85,21.85,0,0,0-6.6,15.71c0,.25,0,.49,0,.74-7.21.43-14.51.65-21.86.65h-.68c-56.73-.1-110.24-13-150.7-36.38-16.27-9.4-29.7-20.06-40.07-31.64,25.4,80.84,101,139.63,190.14,139.63C303.58,409.25,378.66,351.46,404.7,271.71ZM265.36,393l32-25.25a8,8,0,0,0,0-12.56l-24-19,24-19a8,8,0,0,0,0-12.56l-24-19,24-19a8,8,0,0,0-9.91-12.56l-32,25.24a8,8,0,0,0,0,12.56l24,19-24,19a8,8,0,0,0,0,12.56l24,19-24,19A8,8,0,1,0,265.36,393ZM148.11,243.76a6,6,0,0,0-6,6v8.62H128.34v-8.62a6,6,0,0,0-12,0V279a6,6,0,0,0,12,0v-8.61h13.77V279a6,6,0,0,0,12,0V249.76A6,6,0,0,0,148.11,243.76Zm244.31-50.18a31.11,31.11,0,1,0-31.11,31.11A31.14,31.14,0,0,0,392.42,193.58Zm-16,0a15.11,15.11,0,1,1-15.11-15.11A15.13,15.13,0,0,1,376.42,193.58ZM256.17,149.49a8,8,0,0,0-8-8H202.33a8,8,0,0,0,0,16h45.84A8,8,0,0,0,256.17,149.49ZM295,123.84a8,8,0,0,0-8-8H241.17a8,8,0,0,0,0,16H287A8,8,0,0,0,295,123.84ZM56.42,177.58a8,8,0,1,0,8,8A8,8,0,0,0,56.42,177.58Zm28.94,0a8,8,0,1,0,8,8A8,8,0,0,0,85.36,177.58Zm28.93,0a8,8,0,1,0,8,8A8,8,0,0,0,114.29,177.58Zm28.93,0a8,8,0,1,0,8,8A8,8,0,0,0,143.22,177.58Z"/></g></g></svg>