<svg xmlns="http://www.w3.org/2000/svg" viewBox="0 0 423.08 403.65"><g id="Layer_2" data-name="Layer 2"><g id="Layer_2-2" data-name="Layer 2"><path id="LERM" d="M241.32,114.21a8,8,0,0,1-8-8,20.25,20.25,0,1,0-40.49,0,8,8,0,1,1-16,0,36.25,36.25,0,1,1,72.49,0A8,8,0,0,1,241.32,114.21Zm-180,75.17c1-1,4.36-2.59,6.41-3.54,6.21-2.91,15.6-7.31,15.6-17.55s-9.39-14.64-15.6-17.55a45.25,45.25,0,0,1-5.81-3.05,44.05,44.05,0,0,1,5.81-3.06c6.21-2.91,15.6-7.31,15.6-17.55s-9.39-14.64-15.6-17.55a44.6,44.6,0,0,1-5.81-3,43.43,43.43,0,0,1,5.81-3.06c6.21-2.91,15.6-7.31,15.6-17.55a8,8,0,0,0-16-.49c-1,1-4.36,2.59-6.41,3.55C54.7,91.84,45.3,96.24,45.3,106.48S54.7,121.11,60.91,124a46.57,46.57,0,0,1,5.81,3.06,46.57,46.57,0,0,1-5.81,3.06c-6.21,2.91-15.61,7.31-15.61,17.55s9.4,14.63,15.61,17.54a46.57,46.57,0,0,1,5.81,3.06,46.57,46.57,0,0,1-5.81,3.06c-6.21,2.91-15.61,7.3-15.61,17.54a8,8,0,0,0,16,.49ZM235,230.73a36.25,36.25,0,0,0-72.49,0,8,8,0,0,0,16,0,20.25,20.25,0,0,1,40.49,0,8,8,0,0,0,16,0Zm188.12-38.19v85.6a8,8,0,0,1-4,6.93L215.54,402.58l-.06,0c-.29.16-.58.3-.88.43l-.06,0c-.28.11-.56.2-.84.28l-.24.06-.72.15-.25,0a7.46,7.46,0,0,1-1,.06,7.73,7.73,0,0,1-1-.06l-.24,0a6,6,0,0,1-.74-.14l-.23-.06a8.07,8.07,0,0,1-1.79-.75l-.08,0-69-40.32a45.35,45.35,0,0,1-8.47,6.22,8,8,0,0,1-8,0,8,8,0,0,1-4-6.93V327.31c-16.41-7.27-40.83-6.59-55.77,2a8,8,0,0,1-12-6.93V311.8L4,285.07a8,8,0,0,1-4-6.93v-85.6c0-.33,0-.65.06-1,0-.08,0-.16,0-.25,0-.25.09-.49.15-.73l.06-.23A7.78,7.78,0,0,1,1,188.6l.11-.17c.13-.22.27-.42.41-.62l.16-.21a7.32,7.32,0,0,1,.58-.67l0,0c.22-.22.46-.42.7-.62l.2-.15a7.31,7.31,0,0,1,.65-.43l.11-.08L43.24,163a32.75,32.75,0,0,0,6.43,5.33c-5.21,3.36-10.54,8.45-12,16.35L24,192.54l52.19,30.14c18.37-3.39,39.06-.81,53.88,7.75,11.63,6.71,18,16.12,18,26.49a24.65,24.65,0,0,1-.94,6.74l64.37,37.16L399.08,192.54l-29.8-17.2a8,8,0,0,1-4-6.93V150.84l-81.1,46.82v30.21a8,8,0,0,1-16,0V198L119.36,112.06v20.22c.31,3.28-1.42,6-5.17,8.19L87.58,155.83a29.54,29.54,0,0,0-8.64-8.14c4-2.59,8.1-6.22,10.42-11.36l14-8.08v-30a7.93,7.93,0,0,1,.06-1,2,2,0,0,1,0-.24c0-.25.09-.5.15-.74,0-.07,0-.15,0-.22a8.6,8.6,0,0,1,.74-1.77l.1-.16c.13-.22.27-.43.42-.64l.15-.19q.29-.36.6-.69l0,0a7.1,7.1,0,0,1,.71-.63l.2-.14a6.16,6.16,0,0,1,.65-.44l.11-.07,97.38-56.23a8,8,0,0,1,8,0L312,92.39C320,78.22,331.25,67.7,345.35,61.33a39.15,39.15,0,1,1,13.5,12c-14.41,4.45-25.44,13.54-32.94,27.09l51.37,29.66.12.08c.22.13.43.28.64.43l.2.15a8.52,8.52,0,0,1,.71.62l0,0q.3.31.57.66l.16.21c.15.2.28.4.41.61a1.18,1.18,0,0,1,.11.19,6.9,6.9,0,0,1,.43.86h0a9.18,9.18,0,0,1,.31.88l.06.23c0,.24.1.48.14.73,0,.08,0,.17,0,.25a7.77,7.77,0,0,1,.06,1v26.81l37.8,21.83.12.07c.22.14.43.28.63.43l.21.15c.24.2.48.4.7.62,0,0,0,0,.05.05q.3.31.57.66l.16.21c.14.2.28.4.41.61l.11.19a8.62,8.62,0,0,1,.43.86h0a7,7,0,0,1,.3.88l.06.24c.06.23.11.48.15.72s0,.17,0,.26C423.05,191.89,423.08,192.22,423.08,192.54ZM354.31,39a23,23,0,1,0,23-23A23,23,0,0,0,354.31,39Zm3,98-37.63-21.72a87.08,87.08,0,0,0-3.83,21.8,8,8,0,0,1-8,7.91h-.08a8,8,0,0,1-7.92-8.05,103.18,103.18,0,0,1,5.67-29.84L208.74,51.22l-81.38,47L275.9,184ZM56,229.49,16,206.4v67.12l34.3,19.81v-56a8,8,0,0,1,4-6.92C54.86,230.11,55.43,229.8,56,229.49Zm76.11,27.43c0-4.35-3.66-9-10-12.64-14.93-8.62-39.35-9.29-55.77-2v67.95a87.21,87.21,0,0,1,51.77,0V276.48a8,8,0,0,1,4-6.93C128.45,265.87,132.11,261.27,132.11,256.92Zm71.43,57.76-65-37.51a39.8,39.8,0,0,1-4.51,3.68v41.42a1.41,1.41,0,0,1,0,.29v21.93h0a7.93,7.93,0,0,1,.83-.25l.21-.05c.21-.05.43-.09.64-.12l.27,0,.61,0h.27c.22,0,.44,0,.65,0l.23,0a8.06,8.06,0,0,1,1.72.39l.27.11c.18.08.37.15.55.24l.31.16.26.13,62.63,36.63ZM407.08,206.4,219.54,314.68V381.8L407.08,273.52Z"/></g></g></svg>