<svg xmlns="http://www.w3.org/2000/svg" viewBox="0 0 432.21 418.4"><g id="Layer_2" data-name="Layer 2"><g id="Layer_2-2" data-name="Layer 2"><path id="PAMM" d="M432.21,418.4H.21v-16h432ZM31.37,335.81,37.11,290a22.86,22.86,0,0,1,22.66-20h2.7a22.81,22.81,0,0,1,22.16,17.3L91,312.58A38.78,38.78,0,0,0,128.62,342h2.71a38.89,38.89,0,0,0,38.53-34l11.25-90a22.88,22.88,0,0,1,22.66-20h2.7a22.81,22.81,0,0,1,22.16,17.3L235,240.58A38.78,38.78,0,0,0,272.62,270h2.71a38.89,38.89,0,0,0,38.53-34l11.25-90a22.87,22.87,0,0,1,22.66-20h2.7a22.81,22.81,0,0,1,22.16,17.3L379,168.58A38.78,38.78,0,0,0,416.62,198h2.93a8,8,0,0,0,0-16h-2.93a22.8,22.8,0,0,1-22.15-17.3l-6.32-25.28A38.79,38.79,0,0,0,350.47,110h-2.7a38.91,38.91,0,0,0-38.54,34L298,234a22.88,22.88,0,0,1-22.66,20h-2.71a22.8,22.8,0,0,1-22.15-17.3l-6.32-25.28A38.78,38.78,0,0,0,206.47,182h-2.7a38.91,38.91,0,0,0-38.54,34L154,306a22.88,22.88,0,0,1-22.66,20h-2.71a22.8,22.8,0,0,1-22.15-17.3l-6.32-25.28A38.78,38.78,0,0,0,62.47,254h-2.7a38.9,38.9,0,0,0-38.54,34l-5.74,45.81a8,8,0,0,0,7,8.93,6.82,6.82,0,0,0,1,.07A8,8,0,0,0,31.37,335.81ZM391.49,26V8a8,8,0,0,0-16,0V26a8,8,0,0,0,16,0Zm36,18a8,8,0,0,0-8-8h-18a8,8,0,0,0,0,16h18A8,8,0,0,0,427.49,44Zm-36,36V62a8,8,0,0,0-16,0V80a8,8,0,0,0,16,0Zm-18-36a8,8,0,0,0-8-8h-18a8,8,0,0,0,0,16h18A8,8,0,0,0,373.49,44ZM253.11,109a49,49,0,1,0-49,49A49.05,49.05,0,0,0,253.11,109Zm-16,0a33,33,0,1,1-33-33A33,33,0,0,1,237.11,109ZM8,137a8,8,0,1,0,8,8A8,8,0,0,0,8,137Zm24,0a8,8,0,1,0,8,8A8,8,0,0,0,32,137Zm24,0a8,8,0,1,0,8,8A8,8,0,0,0,56,137Zm24,0a8,8,0,1,0,8,8A8,8,0,0,0,80,137ZM8,137a8,8,0,1,0,8,8A8,8,0,0,0,8,137Zm24,0a8,8,0,1,0,8,8A8,8,0,0,0,32,137Zm24,0a8,8,0,1,0,8,8A8,8,0,0,0,56,137Zm24,0a8,8,0,1,0,8,8A8,8,0,0,0,80,137ZM8,161a8,8,0,1,0,8,8A8,8,0,0,0,8,161Zm24,0a8,8,0,1,0,8,8A8,8,0,0,0,32,161Zm24,0a8,8,0,1,0,8,8A8,8,0,0,0,56,161Zm24,0a8,8,0,1,0,8,8A8,8,0,0,0,80,161ZM8,185a8,8,0,1,0,8,8A8,8,0,0,0,8,185Zm24,0a8,8,0,1,0,8,8A8,8,0,0,0,32,185Zm24,0a8,8,0,1,0,8,8A8,8,0,0,0,56,185Zm24,0a8,8,0,1,0,8,8A8,8,0,0,0,80,185ZM8,209a8,8,0,1,0,8,8A8,8,0,0,0,8,209Zm24,0a8,8,0,1,0,8,8A8,8,0,0,0,32,209Zm24,0a8,8,0,1,0,8,8A8,8,0,0,0,56,209Zm24,0a8,8,0,1,0,8,8A8,8,0,0,0,80,209Zm141.54,90.59-46.26,80.12h92.51Zm0,32,18.54,32.12H203ZM350,341.51v-8H309.82a8,8,0,1,0,0,16h22.85a24.2,24.2,0,1,1-5.73-25.11,8,8,0,1,0,11.31-11.31A40.19,40.19,0,1,0,350,341.51Zm77.76-77.23L389.49,226l-6,6h0l-32.29,32.29a8.5,8.5,0,0,0,12,12L381,258.52V377a8.5,8.5,0,0,0,17,0V258.52l17.78,17.78a8.5,8.5,0,0,0,12-12Z"/></g></g></svg>