<svg xmlns="http://www.w3.org/2000/svg" viewBox="0 0 428.37 425.25"><title>INITIATOR SET</title><g id="Layer_2" data-name="Layer 2"><g id="Layer_2-2" data-name="Layer 2"><path id="INITIATOR_SET" data-name="INITIATOR SET" d="M378.84,394a7.54,7.54,0,1,0-15.07,0v16.07h-52.7V394A7.53,7.53,0,1,0,296,394v16.07H252.76a61,61,0,0,0,21-46V303.89a30.17,30.17,0,0,1,30.14-30.14h60.23a61.13,61.13,0,0,0,61.06-64.07c-1.54-32.63-29-58.19-62.57-58.19H303.89a30.17,30.17,0,0,1-30.14-30.13V61.13a61.13,61.13,0,1,0-122.25,0v60.23a30.17,30.17,0,0,1-30.14,30.13H62.64c-33.55,0-61,25.56-62.57,58.19a61.14,61.14,0,0,0,61.06,64.07h60.23a30.17,30.17,0,0,1,30.14,30.14v60.23a61,61,0,0,0,21,46H129.24V394a7.54,7.54,0,1,0-15.07,0v16.07H61.48V394a7.54,7.54,0,1,0-15.07,0v16.07H7.59v15.07h203.8c.42,0,.82.07,1.24.07s.82-.06,1.23-.07H417.65V410.11H378.84ZM220.16,409.51V394a7.54,7.54,0,1,0-15.07,0v15.47a46.1,46.1,0,0,1-38.52-45.39V343.67h16.3a7.54,7.54,0,1,0,0-15.07h-16.3V303.89a45,45,0,0,0-8.4-26.15l10.1-10.11A7.53,7.53,0,0,0,157.62,257l-10.11,10.1a44.88,44.88,0,0,0-26.15-8.4H96.65V242.37a7.54,7.54,0,0,0-15.07,0v16.31H61.13a46.06,46.06,0,0,1-45.44-38.52H31.21a7.54,7.54,0,0,0,0-15.07H15.72c3.67-22,23.3-38.53,46.92-38.53H81.58v16.31a7.54,7.54,0,1,0,15.07,0V166.56h24.71a44.88,44.88,0,0,0,26.15-8.4l10.11,10.11a7.53,7.53,0,0,0,10.65-10.66l-10.1-10.1a45,45,0,0,0,8.4-26.15V96.65h16.3a7.54,7.54,0,1,0,0-15.07h-16.3V61.13a46.08,46.08,0,0,1,38.52-45.39V31.21a7.54,7.54,0,0,0,15.07,0V15.74a46.08,46.08,0,0,1,38.52,45.39V81.58H242.37a7.54,7.54,0,0,0,0,15.07h16.31v24.71a44.9,44.9,0,0,0,8.4,26.15L257,157.61a7.53,7.53,0,0,0,10.65,10.66l10.11-10.11a44.88,44.88,0,0,0,26.15,8.4H328.6v16.31a7.54,7.54,0,1,0,15.07,0V166.56h18.94c23.62,0,43.25,16.55,46.92,38.53H394a7.54,7.54,0,0,0,0,15.07h15.51a46,46,0,0,1-45.43,38.52H343.67V242.37a7.54,7.54,0,0,0-15.07,0v16.31H303.89a44.88,44.88,0,0,0-26.15,8.4L267.63,257A7.53,7.53,0,0,0,257,267.63l10.1,10.1a44.93,44.93,0,0,0-8.4,26.16V328.6H242.37a7.54,7.54,0,0,0,0,15.07h16.31v20.45A46.09,46.09,0,0,1,220.16,409.51Zm208.21-90.27-36.48,36.48-10.65-10.66,18.29-18.28H311.07v45.53H296v-60.6H399.53l-18.29-18.29,10.65-10.65Z"/></g></g></svg>