<svg xmlns="http://www.w3.org/2000/svg" viewBox="0 0 480.14 429.87"><title>Laberation</title><g id="Layer_2" data-name="Layer 2"><g id="Layer_2-2" data-name="Layer 2"><path id="Laberation" d="M377.3,170.21a249.84,249.84,0,0,0-63.05-33,248.64,248.64,0,0,0-25.43-66.58C262.28,23,210.59-.64,157.14,10.34s-91.63,53.1-97.25,107.3a248.52,248.52,0,0,0,2.88,71.22,249.47,249.47,0,0,0-44.92,55.21c-28,46.74-22.72,103.3,13.47,144.1,24.19,27.26,57,41.7,90.94,41.7a124.56,124.56,0,0,0,50.92-11.06,248.17,248.17,0,0,0,60.08-38,248.47,248.47,0,0,0,70.2,11.23h2c53.77,0,99.29-32.84,116.3-84.11C438.9,256.19,421.46,202.12,377.3,170.21Zm-302.42-51c4.93-47.53,38.41-84.47,85.29-94.1S252.38,36.21,275.66,78A233.11,233.11,0,0,1,293.29,265.5c-.9,2.73-1.88,5.46-2.9,8.17a130.46,130.46,0,0,1-78.49-40,145.61,145.61,0,0,0-9.22-107.28,21.83,21.83,0,0,0-24.18-11.84,21.59,21.59,0,0,0-17.22,18.58,248.88,248.88,0,0,0-85.15,44.24A233.88,233.88,0,0,1,74.88,119.2ZM167,405.05c-43.75,19.56-92.6,9-124.43-26.88S6.22,292.79,30.77,251.81a233.45,233.45,0,0,1,153.6-108.95c2.81-.58,5.66-1.09,8.52-1.57a130.44,130.44,0,0,1,4.6,88,145.58,145.58,0,0,0-88.29,61.62,22,22,0,0,0,18.08,34.26,22.12,22.12,0,0,0,8.48-1.75A249,249,0,0,0,216.62,375,232.94,232.94,0,0,1,167,405.05Zm240.4-101.84c-15.1,45.52-55.85,74.57-103.74,73.77a232.8,232.8,0,0,1-171.07-78.46c-1.91-2.15-3.78-4.36-5.63-6.6a130.54,130.54,0,0,1,73.89-48A145.62,145.62,0,0,0,298.4,289.6c.48,0,1,0,1.44,0a21.8,21.8,0,0,0,20.91-15.07,21.58,21.58,0,0,0-7.48-24.19,248.94,248.94,0,0,0,4.26-95.87,234.6,234.6,0,0,1,50.94,27.91C407.19,210.41,422.48,257.82,407.43,303.21ZM391.18,154.15,315.69,78.66A46.08,46.08,0,1,1,380.86,13.5l10.32,10.32L401.5,13.5a46.08,46.08,0,1,1,65.17,65.16ZM348.27,15.07A31,31,0,0,0,326.34,68l64.84,64.83L456,68a31,31,0,0,0-43.86-43.86l-21,21-21-21A30.83,30.83,0,0,0,348.27,15.07Z"/></g></g></svg>